<mxfile host="app.diagrams.net" modified="2020-09-24T23:20:42.525Z" agent="5.0 (Windows)" etag="jfLfum7UARbf8JEWDWNY" version="13.7.5" type="github">
  <diagram id="C5RBs43oDa-KdzZeNtuy" name="Page-1">
    <mxGraphModel dx="377" dy="227" grid="1" gridSize="10" guides="1" tooltips="1" connect="1" arrows="1" fold="1" page="1" pageScale="1" pageWidth="827" pageHeight="1169" math="0" shadow="0">
      <root>
        <mxCell id="WIyWlLk6GJQsqaUBKTNV-0" />
        <mxCell id="WIyWlLk6GJQsqaUBKTNV-1" parent="WIyWlLk6GJQsqaUBKTNV-0" />
        <mxCell id="lfQaZk7odAAzmyczp7W8-2" value="" style="rounded=0;orthogonalLoop=1;jettySize=auto;html=1;edgeStyle=orthogonalEdgeStyle;elbow=vertical;jumpStyle=arc;" parent="WIyWlLk6GJQsqaUBKTNV-1" source="lfQaZk7odAAzmyczp7W8-0" target="lfQaZk7odAAzmyczp7W8-1" edge="1">
          <mxGeometry relative="1" as="geometry" />
        </mxCell>
        <mxCell id="lfQaZk7odAAzmyczp7W8-0" value="&lt;div&gt;snart&lt;/div&gt;&lt;div&gt;v0.2.6&lt;br&gt;&lt;/div&gt;" style="rounded=0;whiteSpace=wrap;html=1;glass=0;" parent="WIyWlLk6GJQsqaUBKTNV-1" vertex="1">
          <mxGeometry x="280" y="360" width="40" height="40" as="geometry" />
        </mxCell>
        <mxCell id="ZRndskmToJK6TzdVH__R-11" style="rounded=0;orthogonalLoop=1;jettySize=auto;html=1;entryX=0.75;entryY=0;entryDx=0;entryDy=0;jumpStyle=arc;edgeStyle=orthogonalEdgeStyle;elbow=vertical;exitX=0.25;exitY=0;exitDx=0;exitDy=0;" edge="1" parent="WIyWlLk6GJQsqaUBKTNV-1" source="lfQaZk7odAAzmyczp7W8-1" target="lfQaZk7odAAzmyczp7W8-6">
          <mxGeometry relative="1" as="geometry">
            <mxPoint x="400" y="220" as="sourcePoint" />
            <Array as="points">
              <mxPoint x="350" y="320" />
              <mxPoint x="550" y="320" />
            </Array>
          </mxGeometry>
        </mxCell>
        <mxCell id="ZRndskmToJK6TzdVH__R-12" style="rounded=0;orthogonalLoop=1;jettySize=auto;html=1;exitX=0.5;exitY=1;exitDx=0;exitDy=0;entryX=0.5;entryY=0;entryDx=0;entryDy=0;edgeStyle=orthogonalEdgeStyle;elbow=vertical;jumpStyle=arc;" edge="1" parent="WIyWlLk6GJQsqaUBKTNV-1" source="lfQaZk7odAAzmyczp7W8-1" target="lfQaZk7odAAzmyczp7W8-8">
          <mxGeometry relative="1" as="geometry" />
        </mxCell>
        <mxCell id="ZRndskmToJK6TzdVH__R-19" style="rounded=0;orthogonalLoop=1;jettySize=auto;html=1;exitX=1;exitY=0.5;exitDx=0;exitDy=0;entryX=0;entryY=0.5;entryDx=0;entryDy=0;edgeStyle=orthogonalEdgeStyle;elbow=vertical;jumpStyle=arc;" edge="1" parent="WIyWlLk6GJQsqaUBKTNV-1" source="lfQaZk7odAAzmyczp7W8-1" target="lfQaZk7odAAzmyczp7W8-12">
          <mxGeometry relative="1" as="geometry">
            <Array as="points" />
          </mxGeometry>
        </mxCell>
        <mxCell id="ZRndskmToJK6TzdVH__R-20" style="rounded=0;orthogonalLoop=1;jettySize=auto;html=1;exitX=0.75;exitY=0;exitDx=0;exitDy=0;entryX=0.5;entryY=0;entryDx=0;entryDy=0;edgeStyle=orthogonalEdgeStyle;elbow=vertical;jumpStyle=arc;" edge="1" parent="WIyWlLk6GJQsqaUBKTNV-1" source="lfQaZk7odAAzmyczp7W8-1" target="lfQaZk7odAAzmyczp7W8-3">
          <mxGeometry relative="1" as="geometry">
            <Array as="points">
              <mxPoint x="370" y="330" />
              <mxPoint x="480" y="330" />
            </Array>
          </mxGeometry>
        </mxCell>
        <mxCell id="lfQaZk7odAAzmyczp7W8-1" value="&lt;div&gt;bot&lt;/div&gt;v0.2.6" style="rounded=0;whiteSpace=wrap;html=1;" parent="WIyWlLk6GJQsqaUBKTNV-1" vertex="1">
          <mxGeometry x="340" y="360" width="40" height="40" as="geometry" />
        </mxCell>
        <mxCell id="ZRndskmToJK6TzdVH__R-16" style="rounded=0;orthogonalLoop=1;jettySize=auto;html=1;exitX=1;exitY=0.5;exitDx=0;exitDy=0;entryX=0;entryY=0.5;entryDx=0;entryDy=0;edgeStyle=orthogonalEdgeStyle;elbow=vertical;jumpStyle=arc;" edge="1" parent="WIyWlLk6GJQsqaUBKTNV-1" source="lfQaZk7odAAzmyczp7W8-3" target="lfQaZk7odAAzmyczp7W8-6">
          <mxGeometry relative="1" as="geometry" />
        </mxCell>
        <mxCell id="lfQaZk7odAAzmyczp7W8-3" value="&lt;div&gt;db&lt;/div&gt;&lt;div&gt;v0.2.6&lt;br&gt;&lt;/div&gt;" style="rounded=0;whiteSpace=wrap;html=1;" parent="WIyWlLk6GJQsqaUBKTNV-1" vertex="1">
          <mxGeometry x="460" y="360" width="40" height="40" as="geometry" />
        </mxCell>
        <mxCell id="lfQaZk7odAAzmyczp7W8-6" value="&lt;div&gt;logs&lt;/div&gt;&lt;div&gt;v0.2.6&lt;br&gt;&lt;/div&gt;" style="whiteSpace=wrap;html=1;" parent="WIyWlLk6GJQsqaUBKTNV-1" vertex="1">
          <mxGeometry x="520" y="360" width="40" height="40" as="geometry" />
        </mxCell>
        <mxCell id="ZRndskmToJK6TzdVH__R-5" style="edgeStyle=orthogonalEdgeStyle;rounded=0;orthogonalLoop=1;jettySize=auto;html=1;exitX=1;exitY=0.5;exitDx=0;exitDy=0;" edge="1" parent="WIyWlLk6GJQsqaUBKTNV-1" source="lfQaZk7odAAzmyczp7W8-12">
          <mxGeometry relative="1" as="geometry">
            <mxPoint x="460" y="380" as="targetPoint" />
          </mxGeometry>
        </mxCell>
        <mxCell id="ZRndskmToJK6TzdVH__R-14" style="rounded=0;orthogonalLoop=1;jettySize=auto;html=1;exitX=0.5;exitY=0;exitDx=0;exitDy=0;entryX=0.25;entryY=0;entryDx=0;entryDy=0;edgeStyle=orthogonalEdgeStyle;elbow=vertical;jumpStyle=arc;" edge="1" parent="WIyWlLk6GJQsqaUBKTNV-1" source="lfQaZk7odAAzmyczp7W8-12" target="lfQaZk7odAAzmyczp7W8-6">
          <mxGeometry relative="1" as="geometry">
            <Array as="points">
              <mxPoint x="420" y="340" />
              <mxPoint x="530" y="340" />
            </Array>
          </mxGeometry>
        </mxCell>
        <mxCell id="lfQaZk7odAAzmyczp7W8-12" value="&lt;div&gt;route&lt;/div&gt;&lt;div&gt;v0.2.6&lt;br&gt;&lt;/div&gt;" style="whiteSpace=wrap;html=1;rounded=0;glass=0;" parent="WIyWlLk6GJQsqaUBKTNV-1" vertex="1">
          <mxGeometry x="400" y="360" width="40" height="40" as="geometry" />
        </mxCell>
        <mxCell id="ZRndskmToJK6TzdVH__R-22" style="rounded=0;orthogonalLoop=1;jettySize=auto;html=1;exitX=1;exitY=0.75;exitDx=0;exitDy=0;entryX=0.5;entryY=1;entryDx=0;entryDy=0;edgeStyle=orthogonalEdgeStyle;elbow=vertical;jumpStyle=arc;" edge="1" parent="WIyWlLk6GJQsqaUBKTNV-1" source="lfQaZk7odAAzmyczp7W8-8" target="lfQaZk7odAAzmyczp7W8-6">
          <mxGeometry relative="1" as="geometry" />
        </mxCell>
        <mxCell id="ZRndskmToJK6TzdVH__R-23" style="rounded=0;orthogonalLoop=1;jettySize=auto;html=1;exitX=1;exitY=0.5;exitDx=0;exitDy=0;entryX=0.5;entryY=1;entryDx=0;entryDy=0;edgeStyle=orthogonalEdgeStyle;elbow=vertical;jumpStyle=arc;" edge="1" parent="WIyWlLk6GJQsqaUBKTNV-1" source="lfQaZk7odAAzmyczp7W8-8" target="lfQaZk7odAAzmyczp7W8-3">
          <mxGeometry relative="1" as="geometry" />
        </mxCell>
        <mxCell id="ZRndskmToJK6TzdVH__R-24" style="rounded=0;orthogonalLoop=1;jettySize=auto;html=1;exitX=1;exitY=0.25;exitDx=0;exitDy=0;entryX=0.5;entryY=1;entryDx=0;entryDy=0;edgeStyle=orthogonalEdgeStyle;elbow=vertical;jumpStyle=arc;" edge="1" parent="WIyWlLk6GJQsqaUBKTNV-1" source="lfQaZk7odAAzmyczp7W8-8" target="lfQaZk7odAAzmyczp7W8-12">
          <mxGeometry relative="1" as="geometry" />
        </mxCell>
        <mxCell id="lfQaZk7odAAzmyczp7W8-8" value="&lt;div&gt;plug&lt;/div&gt;v0.2.6" style="whiteSpace=wrap;html=1;rounded=0;glass=0;" parent="WIyWlLk6GJQsqaUBKTNV-1" vertex="1">
          <mxGeometry x="340" y="420" width="40" height="40" as="geometry" />
        </mxCell>
      </root>
    </mxGraphModel>
  </diagram>
</mxfile>
